# xmcd
#
# Track frame offsets: 
#        150
#        14155
#        28652
#        42910
#        54357
#        70135
#        85852
#        98360
#        114832
#        124277
#        137962
#        154725
#
# Disc length: 2201 seconds
#
# Revision: 0
# Processed by: cddbd v1.5.2PL0 Copyright (c) Steve Scherf et al.
# Submitted via: ExactAudioCopy v0.99pb4
#
DISCID=9908970c
DTITLE=Harris, Mickey - A Gospel Collection
DYEAR=2011
DGENRE=Bluegrass
TTITLE0=What A Man (My Jesus Was)
TTITLE1=Go Rest High On That Mountain
TTITLE2=God Guide Our Leader's Hand
TTITLE3=Battle
TTITLE4=What A Friend We Have In Jesus
TTITLE5=If We Would Just Pray
TTITLE6=Don't Wait Too Late
TTITLE7=Satan's Jeweled Crown
TTITLE8=I'm Ready To Go
TTITLE9=The Pattern
TTITLE10=I've Got A Home
TTITLE11=Pray Pray Pray
EXTD=
EXTT0=
EXTT1=
EXTT2=
EXTT3=
EXTT4=
EXTT5=
EXTT6=
EXTT7=
EXTT8=
EXTT9=
EXTT10=
EXTT11=
PLAYORDER=
